# Blender3D v248 OBJ File: asteroid.blend
# www.blender3d.org
mtllib asteroid_model.mtl
v -1.783176 3.157423 -2.187264
v -0.623617 3.419646 -2.279537
v -4.136988 -1.528819 1.175240
v 1.622063 -3.012534 -1.107284
v -2.764359 2.370088 -1.340167
v 0.011242 3.019686 2.574161
v -3.271742 2.084863 -0.140242
v -1.924542 3.110817 -0.535404
v -3.428460 0.084386 1.434556
v -1.127657 -3.141940 1.362692
v -3.526288 1.205355 -1.042213
v -3.326865 -1.851120 -2.151031
v 3.315345 2.078610 0.192092
v 1.677497 2.826964 1.998395
v -3.488970 -0.830072 -2.166265
v 2.454325 -1.478905 -2.751490
v 0.892076 -2.198434 3.836253
v -0.529430 -1.099092 -4.090514
v -1.530568 2.367935 2.067323
v -0.082300 -2.695156 3.227212
v -4.186931 -0.713751 0.795901
v -3.847708 0.187925 -0.543515
v 2.213019 2.683415 -2.315270
v -3.271944 1.840718 0.932036
v 0.112475 -1.622629 4.020147
v -1.052165 1.693250 -4.113129
v -1.423264 -0.272173 -4.052314
v -2.335668 2.112422 -2.554989
v 1.706754 -3.029854 0.171139
v -2.704852 0.116766 -2.710793
v 3.689623 1.837504 -1.209753
v -1.948996 -3.023728 0.875353
v 3.308379 -0.730487 -2.346540
v -0.899223 -1.466655 3.453547
v 3.176398 -0.164593 2.544505
v 1.450483 3.221935 0.923732
v -2.242297 -2.166627 2.063739
v -1.472705 -1.333648 -3.420503
v 3.871596 0.740806 1.546153
v 2.533928 1.975883 1.930760
v 0.492799 2.513122 -3.092595
v -0.349212 3.148993 -0.029523
v 3.267344 1.184023 2.241151
v -4.353748 -1.612557 -0.495422
v -1.930530 1.654793 2.510300
v 0.573979 -0.844695 -4.044802
v 0.528275 -3.143214 -1.789249
v 3.692719 -1.577900 -1.071348
v 1.168138 1.079678 3.139852
v 3.753358 -0.623585 -0.108652
v 3.379341 -1.003592 1.838246
v -1.351585 2.874982 -3.067893
v 1.766429 -1.157478 3.728364
v 3.667178 1.594924 1.024512
v -0.884260 1.836161 2.998022
v -1.073378 -3.132030 -1.461949
v -0.467529 3.159610 1.532913
v 3.709228 0.144063 -1.087636
v 3.605958 -1.445132 -1.878629
v 2.660886 3.124851 -0.854361
v -0.436671 0.126434 -4.552140
v -2.266935 -2.809002 -1.819118
v -2.916038 -0.990559 1.868705
v 0.627561 3.215132 -1.810096
v 2.894693 -2.446815 -1.574007
v 0.482250 2.215932 3.057291
v 2.681753 1.396219 -2.708434
v 0.310227 -2.120141 -3.148356
v 3.060341 -1.967882 0.490186
v 1.224500 -2.950663 1.059580
v 3.238048 2.395264 -1.831406
v 2.981815 0.133216 -2.548208
v 3.870637 0.807691 -0.134255
v 0.576682 -3.072934 2.294799
v -0.354720 0.674670 3.589938
v 1.886084 -2.119545 3.151299
v -3.599368 -2.470988 0.392379
v 0.714642 0.489363 -4.151877
vt 0.939887 0.749245
vt 0.882087 0.765738
vt 0.909802 0.709116
vt 0.744289 0.852071
vt 0.780767 0.797488
vt 0.823963 0.906945
vt 0.234295 0.683750
vt 0.270050 0.554055
vt 0.325060 0.590762
vt 0.427282 0.155548
vt 0.455828 0.230183
vt 0.395066 0.215919
vt 0.916888 0.818154
vt 0.734567 0.665953
vt 0.710676 0.592337
vt 0.781080 0.635804
vt 0.481963 0.127944
vt 0.542294 0.222120
vt 0.427769 0.111013
vt 0.261778 0.126404
vt 0.240333 0.194411
vt 0.187181 0.193150
vt 0.846511 0.584498
vt 0.855876 0.640460
vt 0.551062 0.125992
vt 0.497779 0.427277
vt 0.542317 0.421710
vt 0.574505 0.474962
vt 0.113661 0.191449
vt 0.112114 0.284133
vt 0.054181 0.195192
vt 0.865202 0.866166
vt 0.513952 0.077433
vt 0.348706 0.701908
vt 0.395066 0.740710
vt 0.346829 0.777507
vt 0.869255 0.540603
vt 0.867305 0.438862
vt 0.914198 0.525745
vt 0.051960 0.309611
vt 0.736076 0.947283
vt 0.803437 0.976944
vt 0.769745 1.000179
vt 0.638699 0.574913
vt 0.570062 0.656362
vt 0.464055 0.613847
vt 0.693801 0.861794
vt 0.170164 0.663802
vt 0.182773 0.551311
vt 0.383980 0.524936
vt 0.395014 0.566161
vt 0.395325 0.279404
vt 0.109230 0.113107
vt 0.051989 0.138467
vt 0.746008 0.440040
vt 0.755551 0.558181
vt 0.697173 0.463505
vt 0.832347 0.678927
vt 0.736382 0.718125
vt 0.395066 0.628091
vt 0.445152 0.666615
vt 0.389302 0.621319
vt 0.417300 0.327503
vt 0.527396 0.340451
vt 0.514643 0.371831
vt 0.570273 0.292071
vt 0.161697 0.490486
vt 0.212359 0.487732
vt 0.113254 0.329049
vt 0.746290 0.666809
vt 0.849320 0.371831
vt 0.637403 0.629644
vt 0.646008 0.686245
vt 0.242981 0.348199
vt 0.797744 0.527579
vt 0.613771 0.077556
vt 0.693857 0.702583
vt 0.695066 0.756589
vt 0.197224 0.730626
vt 0.668564 0.129623
vt 0.671985 0.081043
vt 0.235380 0.522190
vt 0.304455 0.492416
vt 0.794422 0.277299
vt 0.782064 0.355285
vt 0.741951 0.307432
vt 0.717851 0.204356
vt 0.228687 0.404580
vt 0.809343 0.337889
vt 0.929370 0.417987
vt 0.351648 0.183786
vt 0.350095 0.135267
vt 0.693801 0.406689
vt 0.649274 0.229003
vt 0.057378 0.551386
vt 0.090219 0.583794
vt 0.057517 0.642243
vt 0.448620 0.417865
vt 0.445325 0.518370
vt 0.093086 0.406300
vt 0.357067 0.326274
vt 0.145184 0.702406
vt 0.121630 0.631033
vt 0.681517 0.273887
vt 0.717807 0.169413
vt 0.961321 0.494072
vt 0.923165 0.610404
vt 0.299510 0.289689
vt 0.296741 0.227871
vt 0.614970 0.329102
vt 0.974707 0.417860
vt 0.395066 0.225535
vt 0.324010 0.403059
vt 0.217276 0.452134
vt 0.693801 0.661749
vt 0.893779 0.594766
vt 0.114985 0.454699
vt 0.824897 0.666809
vt 0.221274 0.463260
vt 0.674722 0.583747
vt 0.384962 0.157254
vt 0.209144 0.077433
vt 0.512574 0.497369
vt 0.725835 0.373809
vt 0.924594 0.879581
vt 0.057527 0.693888
vt 0.057378 0.642243
vt 0.102965 0.642610
vt 0.931575 0.921493
vt 0.593075 0.404871
vt 0.666816 0.481737
vt 0.285267 0.454699
vt 0.355303 0.475287
vt 0.410076 0.686145
vt 0.051960 0.516384
vt 0.090219 0.454699
vt 0.090165 0.551386
vt 0.503507 0.371831
vt 0.717807 0.371831
vt 0.379392 0.378784
vt 0.274233 0.770453
vn 0.541948 -0.792322 0.280099
vn 0.756645 -0.389019 0.525468
vn 0.284646 -0.713340 0.640370
vn 0.810266 -0.112583 0.575091
vn 0.745170 -0.062044 0.663930
vn 0.947295 -0.299600 0.113285
vn -0.415784 -0.185919 0.890225
vn -0.715415 -0.024415 0.698264
vn -0.529740 -0.289560 0.797174
vn 0.386181 -0.919309 -0.075411
vn 0.753563 -0.616779 0.227363
vn -0.933927 0.357311 -0.009064
vn -0.715049 0.666646 -0.210395
vn -0.977691 0.201849 -0.057649
vn -0.010437 -0.972777 0.231361
vn 0.009217 -0.998932 -0.045045
vn -0.337443 0.935423 -0.105319
vn -0.247993 0.961638 -0.117008
vn -0.956023 -0.047395 -0.289376
vn -0.988525 -0.146092 0.037538
vn -0.134831 -0.968383 0.209754
vn 0.772942 0.204596 -0.600574
vn 0.928739 -0.289865 -0.231025
vn 0.755669 -0.208991 -0.620685
vn -0.199255 0.942351 -0.268807
vn 0.162725 0.966582 -0.198004
vn 0.286843 0.732109 -0.617786
vn 0.891537 -0.301859 0.337687
vn -0.255989 -0.652913 0.712851
vn -0.599750 -0.402661 -0.691458
vn -0.317179 -0.356334 -0.878872
vn -0.523759 -0.614277 -0.590167
vn 0.496597 0.588244 -0.638203
vn 0.967406 0.185034 0.172796
vn 0.568285 -0.327769 -0.754692
vn 0.161077 -0.225257 -0.960875
vn 0.568255 0.141423 -0.810572
vn 0.629719 0.449751 0.633351
vn -0.359630 0.321116 0.876064
vn -0.476455 0.380047 0.792779
vn -0.942259 -0.295816 0.156804
vn -0.728813 -0.454085 0.512436
vn 0.829218 -0.558580 0.017762
vn -0.597308 0.679098 -0.426618
vn -0.227882 0.606464 -0.761742
vn -0.467849 0.009003 -0.883755
vn -0.853908 0.359630 -0.376110
vn 0.313944 -0.367229 0.875515
vn 0.559069 0.189703 0.807092
vn 0.194891 0.176489 -0.964782
vn -0.334697 -0.725181 0.601703
vn 0.726951 -0.589435 -0.352214
vn 0.476608 -0.718131 -0.507004
vn 0.246498 -0.951750 -0.182714
vn -0.522507 0.798853 0.297922
vn -0.837825 0.288614 0.463363
vn 0.309885 0.934233 -0.176427
vn 0.023469 0.083346 0.996216
vn 0.335582 -0.471816 -0.815302
vn -0.208747 -0.423566 -0.881466
vn 0.084780 0.976836 0.196448
vn -0.764946 0.069124 -0.640339
vn 0.152104 0.518448 0.841456
vn 0.434828 0.503616 0.746483
vn -0.513993 -0.856319 0.049776
vn -0.752495 -0.017365 0.658345
vn -0.968230 -0.033815 0.247658
vn -0.731956 -0.652913 -0.194739
vn -0.201331 -0.969115 -0.142277
vn 0.309549 0.855556 0.414899
vn -0.799127 -0.562944 -0.210761
vn 0.570940 0.814295 -0.104312
vn -0.060060 0.730888 0.679830
vn -0.477340 -0.728416 -0.491440
vn -0.098514 0.964995 0.242927
vn -0.277566 0.952971 0.121372
vn 0.101444 -0.820887 -0.561968
vn 0.562944 0.059450 -0.824335
usemtl asteroid_asteroid_texture_full
s 1
f 1/1/1 28/2/2 52/3/3
f 15/4/4 30/5/5 22/6/6
f 78/7/7 72/8/8 67/9/9
f 1/10/1 8/11/10 5/12/11
f 1/1/1 5/13/11 28/2/2
f 48/14/12 69/15/13 50/16/14
f 2/17/15 42/18/16 8/11/10
f 8/11/10 1/10/1 2/17/15
f 2/17/15 1/10/1 52/19/3
f 69/20/13 29/21/17 70/22/18
f 50/16/14 39/23/19 73/24/20
f 2/17/15 64/25/21 42/18/16
f 3/26/22 21/27/23 9/28/24
f 74/29/25 10/30/26 20/31/27
f 30/5/5 28/2/2 11/32/28
f 41/33/29 64/25/21 2/17/15
f 41/34/29 2/35/15 52/36/3
f 43/37/30 49/38/31 40/39/32
f 37/40/33 20/31/27 10/30/26
f 44/41/34 21/42/23 3/43/22
f 45/44/35 75/45/36 34/46/37
f 12/47/38 30/5/5 15/4/4
f 46/48/39 16/49/40 72/8/8
f 72/8/8 31/50/41 71/51/42
f 5/12/11 8/11/10 7/52/43
f 45/44/35 34/46/37 9/28/24
f 30/5/5 11/32/28 22/6/6
f 76/53/44 74/29/25 17/54/45
f 53/55/46 51/56/47 76/57/44
f 26/58/48 28/2/2 30/5/5
f 51/56/47 50/16/14 69/15/13
f 46/48/39 72/8/8 78/7/7
f 26/58/48 30/5/5 27/59/49
f 10/30/26 74/29/25 70/22/18
f 20/60/27 34/46/37 25/61/50
f 67/9/9 23/62/51 41/34/29
f 24/63/52 19/64/53 45/65/35
f 53/55/46 49/38/31 43/37/30
f 76/53/44 69/20/13 70/22/18
f 24/63/52 7/52/43 8/11/10
f 24/63/52 8/11/10 57/66/54
f 24/63/52 57/66/54 19/64/53
f 65/67/55 59/68/56 16/49/40
f 32/69/57 37/40/33 10/30/26
f 26/58/48 27/59/49 61/70/58
f 53/55/46 75/71/36 49/38/31
f 8/11/10 42/18/16 57/66/54
f 75/45/36 55/72/59 66/73/60
f 10/30/26 70/22/18 56/74/61
f 35/75/62 43/37/30 39/23/19
f 76/53/44 70/22/18 74/29/25
f 23/76/51 64/25/21 41/33/29
f 27/59/49 18/77/63 61/70/58
f 12/47/38 38/78/64 30/5/5
f 46/48/39 78/7/7 61/79/58
f 60/80/65 64/25/21 23/76/51
f 60/80/65 23/76/51 71/81/42
f 33/82/66 59/68/56 58/83/67
f 33/82/66 58/83/67 72/8/8
f 72/8/8 71/51/42 67/9/9
f 60/84/65 31/85/41 13/86/68
f 35/75/62 39/23/19 51/56/47
f 60/84/65 13/86/68 36/87/69
f 62/88/70 32/69/57 56/74/61
f 51/56/47 39/23/19 50/16/14
f 60/84/65 71/89/42 31/85/41
f 75/71/36 66/90/60 49/38/31
f 65/91/55 29/21/17 69/20/13
f 65/91/55 69/20/13 48/92/12
f 53/55/46 76/57/44 17/93/45
f 36/94/69 42/18/16 64/25/21
f 36/94/69 64/25/21 60/80/65
f 13/95/68 54/96/71 40/97/32
f 77/98/72 3/26/22 37/99/33
f 77/100/72 37/40/33 32/69/57
f 68/101/73 62/88/70 56/74/61
f 77/100/72 32/69/57 62/88/70
f 18/102/63 68/103/73 46/48/39
f 44/41/34 22/6/6 21/42/23
f 14/104/74 36/94/69 13/105/68
f 14/106/74 13/107/68 40/39/32
f 78/7/7 67/9/9 41/34/29
f 47/108/75 29/21/17 4/109/76
f 14/104/74 6/110/77 36/94/69
f 27/59/49 38/78/64 18/77/63
f 47/108/75 56/74/61 70/22/18
f 47/108/75 70/22/18 29/21/17
f 66/90/60 6/111/77 14/106/74
f 66/90/60 14/106/74 40/39/32
f 66/90/60 40/39/32 49/38/31
f 65/91/55 16/112/40 68/101/73
f 36/94/69 6/110/77 57/66/54
f 36/94/69 57/66/54 42/18/16
f 45/44/35 55/72/59 75/45/36
f 68/101/73 38/113/64 62/88/70
f 65/91/55 68/101/73 47/108/75
f 77/100/72 62/88/70 12/114/38
f 66/73/60 55/72/59 6/115/77
f 54/116/71 39/23/19 43/37/30
f 16/49/40 59/68/56 33/82/66
f 37/99/33 34/46/37 20/60/27
f 77/100/72 12/114/38 44/117/34
f 53/55/46 43/37/30 35/75/62
f 48/14/12 50/16/14 58/118/67
f 48/119/12 58/83/67 59/68/56
f 6/115/77 55/72/59 19/120/53
f 6/110/77 19/64/53 57/66/54
f 54/116/71 43/37/30 40/39/32
f 25/61/50 34/46/37 75/45/36
f 62/88/70 38/113/64 12/114/38
f 65/91/55 48/92/12 59/121/56
f 76/53/44 51/122/47 69/20/13
f 9/28/24 34/46/37 63/123/78
f 19/120/53 55/72/59 45/44/35
f 65/91/55 47/108/75 4/109/76
f 63/123/78 34/46/37 37/99/33
f 16/49/40 33/82/66 72/8/8
f 47/108/75 68/101/73 56/74/61
f 3/26/22 9/28/24 63/123/78
f 53/55/46 35/75/62 51/56/47
f 3/26/22 63/123/78 37/99/33
f 74/29/25 20/31/27 17/54/45
f 53/55/46 25/124/50 75/71/36
f 11/32/28 28/2/2 5/13/11
f 11/32/28 5/13/11 7/125/43
f 73/126/20 54/127/71 13/128/68
f 22/6/6 11/32/28 7/125/43
f 22/6/6 7/125/43 24/129/52
f 22/130/6 24/131/52 9/28/24
f 50/132/14 73/133/20 58/83/67
f 20/60/27 25/61/50 17/134/45
f 44/41/34 15/4/4 22/6/6
f 72/8/8 58/83/67 31/50/41
f 65/91/55 4/109/76 29/21/17
f 53/55/46 17/93/45 25/124/50
f 31/50/41 58/83/67 73/133/20
f 21/135/23 22/136/6 9/137/24
f 10/30/26 56/74/61 32/69/57
f 67/9/9 71/51/42 23/62/51
f 77/98/72 44/138/34 3/26/22
f 27/59/49 30/5/5 38/78/64
f 31/85/41 73/139/20 13/86/68
f 68/101/73 18/140/63 38/113/64
f 24/131/52 45/44/35 9/28/24
f 73/24/20 39/23/19 54/116/71
f 26/141/48 61/79/58 78/7/7
f 26/141/48 78/7/7 41/34/29
f 44/41/34 12/47/38 15/4/4
f 26/141/48 41/34/29 52/36/3
f 46/48/39 68/103/73 16/49/40
f 18/102/63 46/48/39 61/79/58
f 26/58/48 52/3/3 28/2/2
